<?xml version="1.0" encoding="utf-8"?>
<!-- Generator: Adobe Illustrator 22.1.0, SVG Export Plug-In . SVG Version: 6.00 Build 0)  -->
<svg version="1.1" id="Layer_1" xmlns="http://www.w3.org/2000/svg" xmlns:xlink="http://www.w3.org/1999/xlink" x="0px" y="0px"
	 viewBox="0 0 1000 1000" style="enable-background:new 0 0 1000 1000;" xml:space="preserve">
<style type="text/css">
	.st0{fill:#D25A01;}
	.st1{fill:#FA8B1E;}
	.st2{fill:#FAFAFA;}
	.st3{fill:#ED7600;}
</style>
<g>
	<path class="st0" d="M224.8,553.3c3.8-3.4,4-8.5,5.6-12.9c5.4-13.9,10.2-28.1,15.2-42.2c0.3-0.7,0.4-1.6,2.2-2.1
		c-5.4,47.3-10.8,94.3-16.2,141.9c8.7-6.4,14-15.6,22.4-22.4c0.7,3,0.4,5.7,0,8.4c-2.2,14.7-4.3,29.4-6.4,44.1
		c-0.3,2.2,1.2,2.9,2.7,3.6c2.3,1,4.8,1.5,7.4,4c-11.7,9.9-23.3,19.8-36,30.5c6-0.7,10.5-1.3,15.6-1.9c-2.1,5.8-6.2,9.6-9.5,13.5
		c-3.1,3.6-3.1,6.4-1.1,10.1c0.6,1.1,1,2.4,1.7,4.1c8-3,15.9-5.9,23.7-8.8c0.3,0.2,0.6,0.5,0.9,0.7c-6,8.5-11.9,17-18.4,26.1
		c15,0,29.4,0,44.8,0c-3.6,4.9-7.9,7.6-11.5,10.7c-11.5,10-23.3,19.6-35,29.4c-4.6,3.8-9.1,7.7-13.7,11.5c-1.1,0.9-1.8,1.9-2.1,3.2
		c-10.9,3.5-22.2,5.9-33,9.8c-13.5,4.9-26.3,11.1-38.4,18.8c-1.2,0.8-2.2,2-4.3,2c0.1-10.1,3.9-18.8,9.8-26.6
		c11.4-15.2,27-25,43.9-32.9c12.6-5.9,26.1-8.8,39.3-12.9c1.5-0.5,3.1-0.9,4.4-2.3c-11.8,1.2-23.6,2.4-35.5,3.6
		c-0.2-0.3-0.3-0.6-0.5-0.9c6.9-4.8,13.8-9.7,21.5-15.1c-5-0.4-7.6,2.9-11.1,3.4c-1.7-11.6-11.7-13.9-20.5-18.1
		c4.6-5.2,10.6-8.5,15.2-13.4c0.3-0.8-0.4-0.7-0.8-0.9c-5.9,3.2-11.8,6.5-17.7,9.7c6.7-11.8,15-21.8,26.7-28.7
		c10-5.9,19.6-12.4,29.7-18.8c-2.1-1.1-3.6,0-5.8,0.1c1.7-12.3,3.4-24.3,5-36.3c-0.4-0.2-0.8-0.4-1.2-0.6
		c-6.4,7.7-12.8,15.4-19.2,23c1.4-39.1,1.3-78,8.5-116.5c-0.3-0.1,0.5-1.4-0.6-0.5c-2.1,5.1-4.2,10.2-6.5,15.8
		C224.2,562.2,224.5,557.8,224.8,553.3z"/>
	<path class="st1" d="M499.1,418.4c-2.5,2.4-5.7,4-8,7.5c-4-3.4-3.8-8-3.5-11.8c1-15.1,5.7-29.3,13.8-42.1
		c16.6-26,35.2-50.6,53.4-75.5c10.2-14.1,21.4-27.6,29.5-43.1c7.1-13.6,12.4-27.8,14.3-43.2c2.7-22.4,0-43.7-10.6-63.7
		c-10.3-19.4-25.5-34.1-44.2-45.4c-3.1-1.9-6.4-3.5-9.5-5.5c-1.4-0.8-2.6-1.5-4.2-0.8l0-0.1c0.1-0.7-0.4-1-0.9-1.2
		c-2.3-2.8-4.6-5.6-7.2-8.6c0.8-0.2,1.3-0.5,1.7-0.4c28.2,10.6,52.9,26.1,69.7,51.8c21.6,32.9,22.4,67.9,8.4,103.8
		c-4.9,12.6-11.9,24.1-19.8,35.1c-22.1,30.4-44.8,60.4-65.7,91.7C505.9,382.5,498.7,399.1,499.1,418.4z"/>
	<path class="st1" d="M382.5,489.1c-0.2,2.8,2.3,3.9,3.8,5.6c1.4,1.5,2.8,2.9,1.6,5.4c-4.6,0.4-7.3-3.3-10.2-5.4
		c-19.5-13.9-35.2-31.1-45.6-53c-10-21.1-13.6-43.5-11.3-66.5c1.7-16.7,8.7-31.9,17.5-46.2c12.4-19.9,27.6-37.7,41.5-56.5
		c8.6-11.6,17.9-22.9,22.3-36.9c4.8-15.4,5.6-31-0.9-46.3c-2.1-4.8-4.2-9.9-9.8-11.9l0,0c-0.6-0.5-0.4-1.5-1.1-2
		c-3.5-4.8-7.6-9.1-12.9-12.6c2.2-0.7,3.9-0.6,5.6,0c19,6.6,30.2,19.9,33.3,39.8c3.3,21.1-3.3,39.6-15.2,56.7
		c-12.4,17.9-26.6,34.6-39.4,52.2c-11.6,15.9-22.7,32.2-27.3,51.7c-8.3,35.2-0.3,67.4,20,96.9c6.5,9.4,14.7,17.2,22.9,24.9
		c0.2,0.6,0.5,1.1,1.2,1.1l-0.1-0.1c0.1,0.7,0.4,1.2,1.2,0.9l0-0.1c0,1.2,1.3,0.8,1.8,1.4C381.9,488.6,382.2,488.8,382.5,489.1z"/>
	<path class="st2" d="M482.4,829.2c3.8-5.2,7.3-10.2,12.1-14.1c3.4-2.8,6.2-2.7,9.3,0c4.5,4.1,7.7,8.8,9.8,14.7
		c2.8,8.1,6.7,15.9,8,24.5c0.5,3.2,0.3,6.3,0,9.4c-0.2,2.5-2,3.7-4.1,4.5c-8.8,3.2-17.8,2-26.7,0.6c-3.9-0.6-5.3-5.6-7.9-8.5
		c-0.4,0.1-0.8,0.1-1,0.3c-2.8,2.9-4,8.1-8.6,8.5c-8.9,0.9-18,2.5-26.6-1.3c-5-2.2-4.2-7.3-3.5-10.9c1.3-7.5,2-15.2,6.3-21.9
		c1.4-2.2,2-4.9,2.7-7.5c1.7-5.7,5.7-9.7,10.1-13.3c2.5-2.1,5.1-1.6,7.7,0.4C474.9,818.6,478.6,823.7,482.4,829.2z"/>
	<path class="st1" d="M727.8,542.3c2.5-15.8,3.1-31.5,2-47.5c-1.2-16.5-4.9-32.4-9.1-48.2c-4.1-15.6-12.1-29-22.6-41.1
		c-14.4-16.6-31-31.1-46-47.2c-12.6-13.5-24.3-27.7-32.7-44.3c-3.5-6.9-4.7-14.4-6.8-21.7c3.2-10.9,9.6-19.7,17.4-27.6
		c0.7-0.1,0.9,0.1,0.8,0.8c-9.7,15.6-8,31.2-0.4,46.9c9.3,19.3,23.6,34.9,38.2,50.2c8.6,9,17.5,17.9,26.5,26.5
		c20.2,19.3,34.3,41.5,40.4,69.4c7.2,32.9,8.5,65.4,1.1,98.2c-0.1,0.3-0.3,0.5-0.7,1.4C732.9,552.6,730.4,547.5,727.8,542.3z"/>
	<path class="st1" d="M733.9,761.4c3.2,0,6.3,0,10.6,0c-5.8-4-10.9-7.2-15.6-11c-4.3-3.4-11.1-4.5-11.9-11.8
		c7.3,3.5,15.2,4.4,22.8,8.3c3.4-7.1,10.4-10.2,17.6-13.7c-7.2-8.2-17.4-12.7-23-21.9c7.2-1,11.2,5.7,17.4,6.6
		c1.4-2.3,0.1-3.6-1.2-5c-4-4-8.1-7.9-13.3-10.2c-5.2-2.3-9.3-6.4-14.2-9.2c-6-3.4-11.9-7.2-17.8-11c-1.5-1-3.8-1.9-2.4-4.7
		c3.1-1.7,5.7,1,8.9,1c-0.8-11.5-3-22.8-4.8-34.1c-0.3-1.5-1-3,0.7-4c1.8-1.1,3.3,0,4.4,1.2c2.5,2.6,3.9,6.2,7.1,8.2
		c1.6,10.3,3.2,20.6,4.9,31.2c-2.3,0.7-4.3-1-6.3,0.2c9.4,6.1,18.6,12.6,28.3,18c12.5,7,21.3,17.4,28.6,29.7
		c-6-3.3-11.9-6.6-17.9-9.8c-0.4,0.3-1.2,0.3-0.8,1.2c5,4.3,10.1,8.6,15.4,13.1c-8.7,4.4-19,6.4-20.8,18.2
		c-3.9-0.6-6.6-4.2-11.6-3.5c7.7,5.4,14.9,10.3,22.1,15.3C752,763.6,742.9,763.5,733.9,761.4z"/>
	<path class="st1" d="M625,455.4c-1.6,4.5-0.3,9.1-1.2,13.8c-2.4,12.5-9,22.3-18.3,30.6c-1.3,1.2-2.6,2.1-4.5,1.1
		c-1.4-2.2,0.2-3.6,1.4-5.1c7.3-9,11.6-19.2,12-30.9c0.5-13.7-5.2-25.2-13-35.8c-9-12.2-20.7-21.8-31.5-32.3
		c-10.3-9.9-20.8-20.2-24-35.2c-0.8-3.5,0-7-0.7-10.4l0,0.1c0.6-0.1,0.9-0.6,1.1-1.1c4.5-4.4,9.8-7.5,17-10.1
		c-10.6,13.8-6.7,25.8,1.4,37.5c6.6,9.5,15.1,17.2,23.6,24.9c9.6,8.8,18.9,17.8,26.2,28.6C619.7,438.4,623.6,446.4,625,455.4z"/>
	<path class="st1" d="M728.4,654.5c-2.2-16.3-2.9-32.8-1.7-49.1c1.1-15.8-3.7-30-8.4-44.4c-4.1-12.6-8.3-25.2-12.4-37.8
		c-0.7-2.2-0.8-4.4,0.3-6.5c2.9,0.1,3,2.4,3.7,3.8c4.2,7.9,8.3,15.9,12.5,23.8c0.6,1.1,0.8,2.7,2.5,2.8l0,0.1c0,0.8,0.1,1.6,0.7,2.3
		c7.8,20.8,15,41.6,12.7,64.6c-1.4,13.9,0.1,27.9,1.8,41.8c0.5,4,0.9,7.9,0.2,13.4C735.8,663.8,732.1,659.1,728.4,654.5z"/>
	<path class="st2" d="M406.8,872.6c-1.7,2.3-4.2,4-6.8,5.4c-3.3,1.7-6.2,3.8-8.3,7c-1.5,2.2-3.6,3.3-6.1,3.9
		c-6.1,1.4-7.6,0.4-9.2-5.6c-4.2-15.2-1.8-29.6,4.6-43.6c1.2-2.6,2.8-4.9,5-6.7c7.8-6.7,13.2-5.7,18.2,3.4c1,1.9,1.1,3.5,0.4,5.6
		C401.4,852.2,402.8,862.2,406.8,872.6z"/>
	<path class="st2" d="M557.9,873.1c4.2-11,5.6-21.4,2.2-32.2c-1.3-4.3,2.2-6.9,4.7-9.7c2-2.2,4.1-3.5,7.4-2.3
		c5.1,1.9,8.9,5.1,11.3,9.9c7.2,14.7,9.4,30,4.8,46c-1.4,5-7.4,7.1-12,2.7C570.5,881.9,563.9,877.6,557.9,873.1z"/>
	<path class="st2" d="M548.5,865.6c-7,0.9-12.1-3-18-3.1c-2.1,0-2.6-2.8-2.9-4.8c-1.2-7.2-2.1-14.5-5.3-21.2c-1-2.1-0.8-4.1,0.5-6.1
		c1.3-2.1,2.2-4.4,3.4-6.6c2.7-5.2,7.3-6.5,12.5-3.7c12.6,6.9,20.9,28.6,16.5,42.3C553.7,867,550.2,865.1,548.5,865.6z"/>
	<path class="st2" d="M416.6,865.5c-5,1.3-7-1.4-7.5-6.2c-1.8-15.2,3.3-27.8,14.7-37.8c5.7-5,12.7-3.6,16,3.9
		c2.6,5.7,3.6,10.3,0.9,16.2c-2,4.4-2.5,9.6-3.2,14.5c-0.6,4.1-1.7,6.6-6.6,6.7C426.2,863.2,421.9,866.5,416.6,865.5z"/>
	<path class="st1" d="M809,827.8c-0.1-7.8-4.7-13.6-9.1-19.3c-11.5-14.8-27.3-23.8-44.2-31.1c-16-6.9-33.1-10.4-49.7-15.5
		c-0.8-1.4-0.9-2.8,0.5-4.4c4.7,1.4,10.2-0.1,14.8,2.6c2.4,1.4,5.4-2.3,7.1,1.2c-1.2,0.3-2.7-0.5-4,0.8c9.9,2.9,19.7,5.3,29.3,8.6
		c22.9,7.9,44,18.8,59,38.8c5.8,7.7,9.4,16.3,9.8,27c-4.4-2.9-8.3-5.4-12.1-7.8C810.1,828.1,809.9,827.5,809,827.8L809,827.8z"/>
	<path class="st1" d="M610.4,846.5c2.3-10.8,1-21.5-2.4-31.8c-5.6-17.2-11.7-34.1-17.6-51.2c-0.7-2.1-1.6-4.2,1.6-5.1
		c2.3,1.3,3.2,3.7,4.4,5.8c4.1,7.8,8.1,15.6,12.2,23.4c0.5,1,0.7,2.3,2.2,2.4l-0.1,0.1c0.1,0.8,0,1.7,0.8,2.2
		c6.4,16.4,12.6,32.9,10.8,51c-0.5,4.9-1.5,9.8-3.1,15.4C615.3,854.9,613,850.6,610.4,846.5z"/>
	<path class="st1" d="M654.6,447.2c-0.4,3.5-1.4,6.7-5,9.7c-13.8-22.4-34.5-39.1-48.1-61.5c-3.1-11.1,2.3-21.5,14-25
		c-9.9,8.8-6.2,17.6-1.2,26.2c8,13.8,19.4,24.9,29.6,36.9C647.6,437.8,651.7,442,654.6,447.2z"/>
	<path class="st1" d="M341.8,845.4c5.2-4.7,9.5-10.3,15.5-14.4c2.2-1.5,2.9-5.4,3.9-8.3c1-3.2,3.1-4.9,5.8-6c2.3,0.2,0.8,3,3,3.3
		c6.6-5.6,14.3-8.2,23.2-6.2c1.2-2.3,2.2-4.4,3.3-6.4c2.1-3.9,3.6-4.2,6.6-1.1c1.2,1.3,2.4,2.2,4.3,2.1c-0.9,3-2.3,5.8-4.1,8.7
		c-10.8-4.8-18.5,0.6-25.7,8.4c-1-2.4-1.7-4.3-2.5-6.5c-3,10.8-11.4,17.1-18.5,24.4c-4.2,4.3-7.3,9.8-11.3,15.3
		C342.8,854.1,342.5,849.7,341.8,845.4z"/>
	<path class="st2" d="M371.1,847.2c-3.3,25.8-3.3,29.4,0.9,41.9c-4.4,1.6-9,1.6-13.5,2.1c-2.8,0.3-4.4-1.9-4.9-4.1
		C350.6,873.7,360.4,850.6,371.1,847.2z"/>
	<path class="st2" d="M592.8,889.5c5.3-14.2,4.3-28.1,0.6-42.4c3.5,1,5.8,3.1,7.6,5.4c7.1,9.2,11.2,19.5,10.8,31.3
		c-0.2,6.2-2.4,8-8.5,7.2C599.9,890.5,596.5,890,592.8,889.5z"/>
	<path class="st1" d="M621.4,799.4c9.8-1,19.6-2.3,29.5-2.8c10.4-0.5,20.9-0.3,31.3-0.2c6.3,0.1,12.5,0.6,18.8,1
		c1.3,0.1,2.3,0.5,2.5,1.9c-19.4-0.7-38.8-1-58.1,1.1c-7.2,0.8-14.5,1.8-21.8,2.7C622.3,802.2,621.7,800.9,621.4,799.4z"/>
	<path class="st1" d="M475.6,804.3c3.9-2.6,7.6-5.5,12.5-6.4c3.4-0.7,6.1-0.2,8.3,2.3c-5.9,1.9-10.3,5.9-14.4,11
		C479.8,808.8,477.7,806.6,475.6,804.3z"/>
	<path class="st1" d="M431.5,804.9c1.1-3.3,2.1-6.6,3.2-9.8c0.6-1.6,1.5-2.8,3.6-2.7c2.1,0.1,2.3,1.7,2.7,3c0.8,2.6,1.5,5.3,2.3,8
		c-0.5,2.3-1.2,4.4-2.7,6.7C437.5,808.1,434.8,805.9,431.5,804.9z"/>
	<path class="st1" d="M503.4,800.5c0.6-1.9,1.2-3.7,1.8-5.6c0.4-1.3,0.8-2.5,2.5-2.5c1.8-0.1,2.8,0.7,3.4,2.3
		c1.1,2.9,2.2,5.8,3.3,8.7c0,1.8-0.5,3.5-1.7,5.4C509.4,806.1,507.1,802.4,503.4,800.5z"/>
	<path class="st1" d="M409.4,806.4c4-1.2,7.1-4.9,11.8-4.1c2.1,0.4,4.4,0.1,5.2,2.7c-4.3,1.7-7.6,5-11.7,7.7
		C413,810.6,411.2,808.5,409.4,806.4z"/>
	<path class="st1" d="M448.6,799.4c5-2,10-3,14.7,0.6c-5.4,0.8-8.3,5.1-12.1,9.2C449.9,805.7,448.9,802.6,448.6,799.4z"/>
	<path class="st1" d="M520.5,802.4c3.7,0.8,8.3-2.1,10.9,2.8c-2.6,1.5-5.1,3-8,4.7C521.9,807.6,520.9,805.2,520.5,802.4z"/>
	<path class="st1" d="M542.4,807.5c0.8-1.6,1.4-3.5,3.8-3.1c3.5,0.6,3.5,3.8,4.4,6.2c-0.7,1.6-1.6,2.4-3.3,0.9
		C545.7,810.1,544,808.8,542.4,807.5z"/>
	<path class="st1" d="M632.4,262.3c0.7,1.8-0.9,2.3-1.7,3.3c-0.3-0.3-0.5-0.5-0.8-0.8c0.8-0.9,1.3-2,2.6-2.3L632.4,262.3z"/>
	<path class="st3" d="M611.6,792.3c-1-0.5-1.2-1.3-0.8-2.2C611.5,790.7,611.6,791.5,611.6,792.3z"/>
	<path class="st3" d="M390.4,175.4c0.9,0.4,1.1,1.1,1.1,2C390.6,177,390.5,176.2,390.4,175.4z"/>
	<path class="st3" d="M381.5,488.4c-0.9,0-1.8-0.2-1.8-1.4C380.6,487.2,381.2,487.5,381.5,488.4z"/>
	<path class="st3" d="M725.5,549.4c-0.9-0.5-1-1.3-0.7-2.3C725.6,547.7,725.5,548.5,725.5,549.4z"/>
	<path class="st3" d="M379.8,487c-0.7,0.1-1.1-0.2-1.2-0.9C379.1,486.4,379.4,486.7,379.8,487z"/>
	<path class="st3" d="M546.4,350.1c-0.4,0.4-0.8,0.7-1.1,1.1C545.6,350.9,546,350.5,546.4,350.1z"/>
	<path class="st1" d="M632.5,262.4c0.2-0.2,0.3-0.4,0.5-0.6c0,0.2,0.1,0.4,0.1,0.6c-0.2,0-0.4-0.1-0.6-0.1L632.5,262.4z"/>
	<path class="st3" d="M529.3,93.4c0.6,0.2,1,0.6,0.9,1.2C529.9,94.3,529.6,93.8,529.3,93.4z"/>
	<path class="st3" d="M378.7,486.2c-0.7-0.1-1.1-0.5-1.2-1.1C377.9,485.4,378.3,485.8,378.7,486.2z"/>
	<path class="st3" d="M809.1,827.7c0.7-0.1,1.1,0.2,1.3,0.8C810,828.3,809.5,828,809.1,827.7z"/>
	<path class="st3" d="M809.7,823c-1.1-3.5-2.7-6.8-4.8-9.9c-14.3-21.6-35.8-32.7-59.2-41c-11.4-4.1-23.2-7.3-35-10.3
		c-1.1-0.3-2.7-0.3-2.9-2.4c7-0.2,13.6,2,20.5,1.8c1.8,0.4,3.6,0.7,5.5,0.2c3.5,0.3,7,1.4,11.7-0.4c-9.2-7.4-18.8-12.8-27.1-20.1
		c3.5-0.4,5.6,2.2,8.4,2.9c3.1,0.7,6.3,0.8,9,2.6c2.5,1.7,4.8,1.4,6.5-1.1c2.9-4.4,7.2-6.7,11.7-9c4.4-2.3,4.7-4.3,0.8-7.4
		c-5.1-4-9.7-8.6-15.1-12.3c-1.4-1-3.1-1.8-3.1-4.3c2.2,0,3.6,1.2,5.1,2.1c2.3,1.3,4.5,2.9,7,3.9c1.2,0.5,2.6,1.1,3.7-0.1
		c1.2-1.3,1-2.8,0.2-4.2c-1.5-2.7-3.7-4.7-6.2-6.4c-11.4-8-23.3-15.4-35.2-22.8c-2.4-1.5-5.2-2.5-6.8-5.4c3-1,5.3,1.5,8.4-0.4
		c-0.1-12-3.7-24-4.5-36.4c3.3,0,4,2.3,5.4,3.8c1.5,1.6,2.4,4.1,5.3,3.9c0-1.7,0-3.3,0-6.1c3.6,4,6.3,7.1,9.1,10.1
		c1.6-1.5,1-3.4,0.8-5.2c-1.6-15.3-1.8-30.6-1.1-45.9c0.4-10-0.9-19.6-3.9-29c-5.1-16-10.2-32.1-15.7-48c-0.7-2-1.6-4-1.1-6.7
		c1.7,1.6,2.3,3.4,3.1,5c3.4,6.5,6.3,13.3,10.3,19.4c0.9,1.4,1.2,4.1,4.1,3c-1.3-6.6-4.6-12.7-5.7-19.4l-0.1-0.4l0.4,0.1
		c3.5,4.6,5.2,10.2,8.3,15c2-0.5,1.8-2.2,2-3.6c1.1-6.7,1.7-13.5,2-20.3c0.7-21.4-2.4-42.4-7.3-63.3c-5.6-23.9-17.7-43.5-34.6-60.8
		c-16.8-17.1-34.7-33.1-49.8-51.8c-11.5-14.2-22.2-28.8-25.4-47.5c-0.2-1.2-0.3-2.8-2.2-2.7c-0.3,0.6-0.7,1.1-0.9,1.7
		c-5.4,16.8-2.9,32.7,5.3,48c5.7,10.8,13.3,20.3,20.7,29.8c8.2,10.6,16.7,21.1,22.3,33.5c7.3,16,7.4,31.9-0.7,47.9
		c-1.6-2.2-3.1-4.2-4.5-6.2c-2.5,1.6-1.5,5.5-4.6,6.7c-2.1-0.6-2.7-2.5-3.7-3.9c-2.7-4-5.5-7.9-8.6-11.6
		c-11.5-13.5-24-26.2-33.6-41.2c-0.6-0.9-1.1-2.1-2.7-1.8c0.1,6.5,3.9,11.5,7.2,16.6c5.9,9,12.7,17.4,17.9,26.9
		c9.9,18,3.9,42.4-8.7,54.3c-0.2-0.4-1.1-0.2-0.7-1c6.7-11.4,10-23.5,7.8-36.7c-2.4,1.1-1.9,3.3-1.8,5.2c0.2,7.2-1.6,13.9-4.6,20.3
		c-3.5,7.4-8.5,13.6-15.9,18.9c0.2-3.3,2-4.7,3.1-6.3c11.5-16.6,13.3-34.1,4.4-52.4c-6.5-13.4-16.5-24.2-27.3-34.1
		c-7.6-7-15.3-13.9-22.1-21.6c-7.7-8.7-14.3-18.1-14.2-30.6c0-1.3-0.1-2.7-1.5-3.5c-15.9,14.5-17.2,32.1-10.8,51.5
		c-13.7,2.9-24.9,9.7-34.6,19.9c-0.3-1.8-0.5-3-0.7-4.2c-3.5-0.2-5.1,3.6-8.4,4.3c-1.6-3.1-2-6.3-1.7-9.6c1.4-17.4,8-32.9,17.7-47.1
		c17.5-25.9,36.2-51,54.7-76.3c11-15,22.2-29.9,29.6-47.3c9.7-22.7,12.9-46.2,7.6-70.3c-8-36.5-31.7-60.6-63.7-77.6
		c-1.5-0.8-3.3-2-4.7,0.2c5,8.9,9,18,9.4,28.5c0.5,15-4.4,28.4-11.8,41c-11.2,19.2-26.4,35-42.4,50.1c-21,19.8-44,37.1-64.9,57
		c-20.5,19.4-39.6,39.9-54,64.5c-13.8,23.6-20.7,48.9-17.7,76.3c3.1,28.1,14.6,52.6,34,73.3c1.1,1.2,2.7,2.3,3,4.7
		c-1.4-0.5-2.3-0.7-3.2-1c-2.2,4.1,3.4,5.2,3.4,8.4c-1,0.6-1.7-0.1-2.3-0.5c-28.2-18.4-48.5-42.9-57.6-75.8
		c-4.6-16.5-5.9-33.2-3.2-50c3.6-22.1,15-40.8,28-58.5c10.8-14.8,22.2-29.2,33.3-43.7c14.3-18.7,25.2-38.5,22.7-63.2
		c-0.9-9.4-3.8-17.9-9.4-25.4c-1.4-1.8-2.8-4.4-6-3c1.6,5.6,3,11.1,2.4,17.1c-1,9.3-4.3,17.7-8.7,25.8c-11.1,20.3-26,37.8-41.6,54.6
		c-20.2,21.9-40.9,43.4-61.1,65.3c-15.5,16.7-28.6,35.2-35.9,57c-9.9,29.7-17.5,60-20,91.3c-1.7,21.6-2.8,43.2-1.8,64.9
		c2.5,1,2.8-1.2,3.3-2.5c6.3-16.9,12.1-33.9,18.1-50.2c-5.1,28.2-16.2,134.1-14.3,138.2c8.7-4.6,12.9-14,20.6-19.6
		c0.7,1.5,0.4,2.6,0.2,3.8c-2,12.3-3.2,24.8-5.4,37.1c-1.2,6.7-1.5,12.6,6.5,15.2c0.3,0.1,0.3,0.5,0.3,1.1c-0.2,1.5-1.6,2.2-2.8,3.1
		c-8.4,7-16.7,14.2-25.2,21.2c-1.8,1.4-3.8,2.8-3.8,5.7c3.8,2.1,7.8-0.7,11.5,0.5c0.3,1-0.3,1.6-0.9,2.3c-2.7,3.4-5.4,6.8-7.9,10.3
		c-2.1,2.9-1.4,7.8,1.4,11.6c2.4,3.2,5,1.5,7.6,0.6c5.2-1.8,10.2-4,15.8-5.7c-5,8.6-11.9,15.4-16.7,25.5c14.6,1,28.3,0.1,42.7,0.6
		c-5.4,5.1-10.6,9.2-15.6,13.5c-13.2,11-26.3,22-39.4,33.1c-1.9,1.7-5.3,2.9-4,6.7c13.3-2.4,26.5-4.7,40-5.7c26.6-2,53.2-1.3,79.6,3
		c3.2,0.5,4.7-0.5,6.1-3.3c4.2-8.3,8.6-16.5,13-24.7c0.5-1,0.5-2.7,2.4-2.6c0.8,1.8-0.1,3.3-0.6,4.9c-3.9,11.3-7.8,22.6-11.6,34
		c-3.8,11.3-5.9,22.8-4.2,34.8c2.4,0.9,3.2-1.2,4.3-2.4c2.8-3,5.4-6.3,9-8.5c2.8-1.7,4.5-4.2,5.6-7.3c1.1-3,1.8-6.5,5.5-8.2
		c2.3,2.5,4.5,2,7.3,0c4.1-2.9,8.7-5,14-4.3c4.7,0.6,8-0.9,9.5-5.7c0.4-1.2,1.1-2.4,2.7-2.7c2.8-0.1,4.1,4.4,7.5,2.2
		c0.7-0.7,0.9-1.8,2.1-2c1.5,1.1,2.9,0.2,4.1-0.5c4.2-2.7,8.5-2.6,12.9-0.8c1.7,0,3.4-0.1,5-0.1c4-2.4,2.1-8.6,6.5-10.7
		c2.1,1.2,1.9,3.2,2.6,4.9c0.6,1.6,0.3,3.8,2.6,4.3c1.2-2.7,2.4-5.5,3.7-8.6c0.7,1.9,1.2,3.3,1.7,4.6c4.9,0.3,9.9-0.9,14.7,0.6
		c4.6-0.1,8.5,1.9,12.3,4.3c1.7,0.5,2.9-0.5,4.1-1.3c5.2-3.6,10.6-5.1,16.8-2.8c2.3,0.1,4.7,0.2,7,0.3c3.1-0.9,1.5-5.3,4.7-6.3
		c2.3,0.8,2.3,3,3.1,4.7c0.8,1.6,0.6,4,3.2,4.4c0.9-2.7,1.7-5.4,2.7-8.5c1.3,2.9,2.4,5.2,3.5,7.6c3.3,2.3,7.5,0.9,10.9,2.8
		c4-0.7,7.6,0.3,10.9,2.3c3-1.8,5.4-1.8,6.8,1.9c0.2,0.6,0.8,1,1.4,1.3c1.5-1.3,2.9-2.7,4.6-4.3c1.8,3.7,3.5,7.2,5.4,10.9
		c11.1-5.1,18.7,0.6,25.9,8.3c1-2.7,1.8-4.6,2.8-7.4c1.3,3.2,2.1,5.6,3.1,7.8c1.2,2.5,1.1,5.8,3.7,7.4c5.8,3.3,10,8.2,14.2,13.1
		c2-1.2,2.3-3.2,2.3-5.2c0.3-8.5-0.2-17-2.8-25.2c-4.1-12.8-8.8-25.5-13.1-38.3c-1.8-5.4-4.4-10.6-5.4-17c2.7,1.3,3.4,3.2,4.2,5
		c3.3,7.1,7.5,13.7,11,20.7c0.8,1.6,0.9,4.6,4.2,3.5c-2-6.2-3.9-12.3-5.9-18.5c0.3-0.1,0.6-0.3,0.9-0.4c5.2,9.4,10.4,18.9,15.6,28.3
		c1.8,1.6,4,1.5,6.1,1.2c19.5-2.9,39-3.1,58.6-2.6c5.7,0.1,11.6-0.5,17.2,1.3c11.5,1.5,23.1,2.4,34.6,4.5c24.8,4.6,48.6,12.3,71,24
		C811.3,826.5,810.2,824.6,809.7,823z M421.4,666.2c-1,2.5-2.8,4.5-4.8,6.3c-9.2,7.9-16.2,17.5-21.5,28.3c-0.8,1.6-1.3,3.5-3.5,3.8
		c-0.4-0.3-0.8-0.7-1-1.1c-0.8-3.7,0.7-7.2,1.3-10.8c0.3-1.9,1.5-3.8,0.1-5.8c-2.4-0.7-4.2,0.9-5.9,2.1c-13.4,9.4-28.5,13-44.7,12.9
		c-8.5-0.1-16.9,1.4-25.2,2.6c-6.5,1-12.4,3.5-17.8,7.3c-2,1.4-4,3-6.6,3.3c-0.5,0-1-0.1-1.4-0.3c-1.7-2-0.4-3.6,0.8-5.2
		c0.9-1.3,2.4-2.2,2.9-4c-0.4-2.7-3.7-3-4.5-5.4c-0.6-0.5-1.2-1.2-1.9-1.6c-12.4-6.1-17-17.4-20.4-29.8c-2.5-9-3.3-18.3-4.6-27.5
		c-0.8-6.1,1.7-11.4,4.3-16.7c4.2-8.7,9.8-16.6,16.1-24c8.1-9.6,17-18.3,26.3-26.7c6.1-5.5,12.9-10.3,20.7-12.8
		c9-2.9,17.1-7.2,25.2-11.9c0.8-0.5,1.6-1.2,3.7-0.2c-4.8,7.3-9.6,14.5-14.3,21.7c1.3,2.1,3.5,1.9,5.3,2.5c24.6,7.5,49.3,15,74,22.2
		c3.8,1.1,5.7,3.1,6.9,6.8c2.1,7,4.7,13.9,7.2,20.7c0.9,2.4,1.4,4.7,0.5,7.2C434,642.8,427.7,654.5,421.4,666.2z M527.3,700
		c-0.7,8.5-7.9,14.6-18,15.6c-5.1,1.2-10.3,0.5-15.4,0.6c-3.1,0.1-4.2-2.4-5.3-4.6c-2.2-4.4-3.6-9.3-6.4-13.9
		c-3.2,3.2-3.4,7.9-6.6,10.5c-1.1,2.2-2.3,4.4-3.4,6.7c-2.1,1-4.5,0-6.8,0.7c-6,1-12.3,1.8-18.1-0.4c-11.1-4.1-15.9-16-10-29.9
		c0.8-2.9,1.5-5.8,2.4-9.1c2.6,1.5,4.8,2.8,7.8,4.7c1.1-20.6,2.2-40.6,3.3-60.5c0.2-0.1,0.5-0.2,0.7-0.2c1.5,4.4,2.9,8.8,4.6,13.8
		c1.9-3,2.4-5.8,2.6-8.4c0.5-8.6,13.4-16,22.2-12.4c0.6,0.3,1.1,0.4,1.8,0.2c12.3-3,20.2,2,22.9,14.2c0.4,2.1,0.6,4.3,2.2,6.6
		c1.5-4.5,2.9-8.6,4.2-12.7c0.3,0,0.6,0,0.9,0.1c1.1,19.7,2.1,39.4,3.2,59.8c3-1.7,5.3-3,7.9-4.5C526.4,684.6,528,692.2,527.3,700z
		 M699.2,656.3c-2,9.1-4.4,18-7.8,26.7c-1.6,4.1-4.1,7.4-7.9,10c-5.5,3.7-10.7,7.8-16.2,11.8c2.9,3.7,5.6,7,8.3,10.3
		c-0.1,0.4-0.3,0.6-0.7,0.7c-0.8-0.3-1.6-0.6-2.4-0.9c-0.7,0.2-1.4,0-2-0.3c-0.9-0.4-1.7-0.8-2.5-1.3c-9.7-7.5-21-9.5-32.7-10.7
		c-9.4-0.9-18.9-0.8-28.4-2c-10.3-1.3-19.5-5.5-28.1-11c-2.2-1.4-4.2-3.4-7.1-3.1c-1.6,1.8,0.3,4-0.9,5.8c0.9,4.5,1.8,8.9,2.7,13.4
		c-0.2,0.1-0.3,0.1-0.5,0.2c-2.9-4.8-5.7-9.6-8.6-14.5c-0.2-0.1-0.5-0.2-0.7-0.2c-0.4-0.3-0.8-0.6-1.1-1c-3.8-7.9-10.9-12.9-16.8-19
		c-3.5-3.6-6.6-7.4-8.5-12.2c-2.9-7.3-6.5-14.2-10.1-21.2c-2.9-5.8-3.8-11.6-1.3-17.8c1.8-4.5,3.2-9.1,4.8-13.7c1.5-4,4-6.1,8.1-7.3
		c27.6-7.7,55-15.9,82.6-23.8c1.3-0.4,2.6-0.5,4.1-1.8c-4.9-7.7-12.2-13.4-17.2-20.9c-0.2-0.5-0.4-1-0.4-1.5c0.1-0.6,0.4-0.9,0.9-1
		c9,5.3,18.7,9.3,28.5,12.9c4.7,1.7,8.9,4.5,12.8,7.7c15.4,13,29.4,27.4,41.1,44C700.2,627.6,702.4,641.2,699.2,656.3z"/>
	<path class="st1" d="M608.4,551.4c6.6,7.4,13.2,14.9,20.4,23c-8.3,2.4-16,4.7-23.7,7c-22.3,6.4-44.5,12.9-66.8,19.2
		c-3.3,0.9-5.5,2.3-6.4,5.9c-1.2,4.6-2.7,9.3-4.8,13.6c-2.7,5.7-1.9,11,0.6,16.3c4.1,8.9,8.2,17.8,12.7,26.5
		c2.4,4.6,7,7.5,10.4,11.4c4.4,5.1,10.5,8.8,12.8,15.7c0,0.6,0.4,1,0.8,1.5l0,0c0.7,6.8,2.8,13.4,4.1,20.3c-3.2,0.9-4.5-0.5-5.7-2.5
		c-2.6-4.6-5.6-9.1-7.7-13.9c-4.1-9.3-11.5-15.7-18.2-22.8c-4.3-4.6-8.6-9-10.7-15.3c-1.7-5-4.4-9.7-7.1-14.3
		c-5.8-9.9-6-19.8-1-29.9c0.3-0.6,0.8-1.2,0.8-1.8c0.7-10.6,8.6-12.5,16.9-14.8c25.2-7,50.3-14.5,75.4-21.8c1.3-0.4,2.6-0.6,3.7-2
		c-7.6-8.9-15.3-17.8-23.8-27.8c7.4-0.7,11,4.9,16.2,5.6c0,0,0.5,0.2,0.5,0.2C608.1,550.8,608.2,551.1,608.4,551.4z"/>
	<path class="st0" d="M290.8,714.7c0.5-0.2,1-0.3,1.4-0.6c13.2-11,29.3-12.4,45.4-13.5c7.3-0.5,14.6-0.5,21.8-1.6
		c9.3-1.4,17.7-5.5,25.4-10.8c2.8-1.9,5.7-3.8,9.8-3.9c-0.1,7-3,13.2-3.5,19.7c-0.1,0.5,0,0.6,0.5,0.4c1.3-2.1,2.8-4.1,3.8-6.3
		c5.7-13.1,15.9-22.5,26-32c-0.3,5.9-4.5,9.9-7.2,14.5c-8.9,15-19.7,28.7-29.6,43c-0.5,0.8-1.4,1.4-3.1,2.9
		c0.9-11.3,4.4-21.1,5.2-31.8c-4.2,1.3-7.4,3.4-10.3,5.7c-4.8,3.7-10.2,5.6-16.1,5.7c-11.6,0.1-23.1,1.8-34.7,2.3
		c-6,0.2-11.9,0.8-17.6,4.3c-11.1,6.7-22.8,12.4-34.3,18.4c-0.8,0.4-1.6,1.4-3.1,0.3c6.3-10.4,12.6-20.8,18.9-31.3
		c2.7,1,4.8,2.8,6.9,4.9c-2.3,3-4.6,5.8-6.8,8.7c0.8,1.1-0.5,1-0.9,1.4c-0.2,0.2-0.4,0.3-0.7,0.2c0.2,0.2,0.4,0.2,0.6-0.1
		C289.4,714.9,290,714.6,290.8,714.7z"/>
	<path class="st1" d="M671.5,714.4c0.4,0.2,0.7,0.4,1.1,0.6c0.2,1.8,0.4,3.6,0.7,5.5c-2.1,1.5-3.9,0.7-5.8-0.5
		c-4.1-2.8-8.5-5.2-12.6-8c-7.2-5-15.4-6.5-23.9-7.6c-14.7-1.9-29.8-0.6-44.3-4.9c-5.6-1.7-10.3-5.3-15.9-7.1
		c-0.7-2.5-1.7-5-1.5-7.9c3.6-0.3,6.3,1.3,8.8,3.2c12.5,9.1,26.5,12.6,41.7,12.9c8.1,0.2,16.3,1.2,24.4,2c9.5,1,18,4.5,25.4,10.6
		C669.9,714,671,713.8,671.5,714.4z"/>
	<path class="st1" d="M437.4,685.4c0.1,4.5-1.2,8.8-0.9,13.3c0.5,9,8,16.5,17.1,16.8c4,0.1,7.9,0.1,11.9,0.2
		c-0.6,2.4-2.6,1.7-4.1,1.7c-6,0.1-11.9,0-17.9,0c-7.9,0-15.3-5.9-17.3-13.6c-1.2-4.6-0.7-9.2-0.5-13.8c0.1-2.9,1.8-4.9,5.3-4.6
		C433,685.5,435.2,685.4,437.4,685.4z"/>
	<path class="st1" d="M475.7,708.3c1.9-4.6,3.8-9.1,6.2-15c3.7,8.1,6.8,15.1,10.1,22.4c5.8,0,11.6,0,17.4,0c-1.2,0.9-2.5,1.6-4,1.7
		c-6.2,0.3-12.5-0.2-18.7,0.6c-3.1,0.4-6.9-0.4-7.6-5.2C478.7,711.1,478.1,708.8,475.7,708.3z"/>
	<path class="st0" d="M248.1,493.6c-0.1,0-0.3-0.1-0.3-0.1c0-0.1,0.1-0.3,0.1-0.4c0.1,0,0.3,0.1,0.3,0.1
		C248.2,493.4,248.1,493.5,248.1,493.6z"/>
	<polygon points="719.2,644 718.9,644.1 718.9,643.8 	"/>
	<polygon points="245.1,644 244.9,644.1 244.9,643.8 	"/>
	<path d="M207,719.7c0.4,0,0.7,0,1.1-0.1c-0.1,0.3-0.2,0.7-0.4,1C207.5,720.3,207.3,720,207,719.7z"/>
	<path class="st3" d="M671.5,714.4c-0.9,0-1.7-0.3-1.9-1.3C670.4,713.3,671.1,713.5,671.5,714.4z"/>
	<path class="st3" d="M564.4,691.4c-0.3-0.5-0.5-1-0.8-1.5C563.9,690.4,564.1,690.9,564.4,691.4z"/>
</g>
</svg>
